<svg viewBox="0 0 24 24" fill="none" xmlns="http://www.w3.org/2000/svg">
  <circle cx="12" cy="12" r="10" fill="#4285F4"/>
  <path d="M8 8h8l-2 2h-4l-2-2z" fill="#34A853"/>
  <path d="M6 10h4l2 2H8l-2-2z" fill="#FBBC04"/>
  <path d="M6 14h4l2-2H8l-2 2z" fill="#EA4335"/>
  <path d="M8 16h8l-2-2h-4l-2 2z" fill="#34A853"/>
  <circle cx="12" cy="12" r="3" fill="#fff"/>
  <path d="M10.5 12L12 10.5L13.5 12L12 13.5L10.5 12z" fill="#4285F4"/>
  <rect x="11" y="6" width="2" height="2" fill="#FBBC04"/>
  <rect x="11" y="16" width="2" height="2" fill="#FBBC04"/>
  <rect x="6" y="11" width="2" height="2" fill="#EA4335"/>
  <rect x="16" y="11" width="2" height="2" fill="#EA4335"/>
</svg>
