<svg viewBox="0 0 24 24" fill="none" xmlns="http://www.w3.org/2000/svg">
  <path d="M12 2C6.48 2 2 6.48 2 12s4.48 10 10 10c1.19 0 2.34-.21 3.41-.6.3-.11.49-.4.49-.72 0-.43-.35-.78-.78-.78-.16 0-.31.05-.44.13-.83.3-1.72.47-2.68.47-3.87 0-7-3.13-7-7s3.13-7 7-7 7 3.13 7 7c0 .96-.17 1.85-.47 2.68-.08.13-.13.28-.13.44 0 .43.35.78.78.78.32 0 .61-.19.72-.49.39-1.07.6-2.22.6-3.41C22 6.48 17.52 2 12 2z" fill="#8B5CF6"/>
  <circle cx="8" cy="9" r="1.5" fill="#A855F7"/>
  <circle cx="16" cy="9" r="1.5" fill="#A855F7"/>
  <circle cx="12" cy="12" r="2" fill="#9333EA"/>
  <path d="M9 15c.83.67 1.87 1 3 1s2.17-.33 3-1" stroke="#8B5CF6" stroke-width="2" stroke-linecap="round"/>
</svg>
