<svg viewBox="0 0 24 24" fill="none" xmlns="http://www.w3.org/2000/svg">
  <path d="M11.914 0C5.82 0 6.2 2.656 6.2 2.656l.007 2.752h5.814v.826H3.9S0 5.789 0 11.969c0 6.18 3.403 5.96 3.403 5.96h2.034v-2.867s-.109-3.403 3.35-3.403h5.766s3.237.052 3.237-3.13V3.13S18.28 0 11.914 0zM8.708 1.85c.578 0 1.05.472 1.05 1.05 0 .578-.472 1.05-1.05 1.05-.578 0-1.05-.472-1.05-1.05 0-.578.472-1.05 1.05-1.05z" fill="#3776ab"/>
  <path d="M12.087 24c6.094 0 5.714-2.656 5.714-2.656l-.007-2.752h-5.814v-.826h8.121s4.1.445 4.1-5.735c0-6.18-3.403-5.96-3.403-5.96h-2.034v2.867s.109 3.403-3.35 3.403H9.648s-3.237-.052-3.237 3.13v5.399S5.921 24 12.087 24zm3.206-1.85c-.578 0-1.05-.472-1.05-1.05 0-.578.472-1.05 1.05-1.05.578 0 1.05.472 1.05 1.05 0 .578-.472 1.05-1.05 1.05z" fill="#ffcf47"/>
</svg>
