<svg viewBox="0 0 24 24" fill="none" xmlns="http://www.w3.org/2000/svg">
  <rect x="2" y="2" width="20" height="20" rx="2" fill="#1E40AF"/>
  <path d="M4 20L8 16L12 18L16 14L20 16" stroke="#60A5FA" stroke-width="2" stroke-linecap="round" stroke-linejoin="round" fill="none"/>
  <path d="M4 18L8 12L12 14L16 8L20 10" stroke="#93C5FD" stroke-width="2" stroke-linecap="round" stroke-linejoin="round" fill="none"/>
  <circle cx="4" cy="20" r="1.5" fill="#DBEAFE"/>
  <circle cx="8" cy="16" r="1.5" fill="#DBEAFE"/>
  <circle cx="12" cy="18" r="1.5" fill="#DBEAFE"/>
  <circle cx="16" cy="14" r="1.5" fill="#DBEAFE"/>
  <circle cx="20" cy="16" r="1.5" fill="#DBEAFE"/>
  <rect x="2" y="22" width="2" height="1" fill="#9CA3AF"/>
  <rect x="6" y="22" width="2" height="1" fill="#9CA3AF"/>
  <rect x="10" y="22" width="2" height="1" fill="#9CA3AF"/>
  <rect x="14" y="22" width="2" height="1" fill="#9CA3AF"/>
  <rect x="18" y="22" width="2" height="1" fill="#9CA3AF"/>
</svg>
