<svg id="Layer_1" data-name="Layer 1" xmlns="http://www.w3.org/2000/svg" xmlns:xlink="http://www.w3.org/1999/xlink" viewBox="0 0 1500 1000"><defs><style>.cls-1{fill:none;}.cls-2{clip-path:url(#clip-path);}.cls-3{fill:#db1f26;}.cls-4{fill:#fff;}.cls-5{fill:#ec2224;}</style><clipPath id="clip-path"><rect class="cls-1" y="-0.44" width="1500" height="1000"/></clipPath></defs><title>Flag-of-Canada</title><g class="cls-2"><rect class="cls-3" x="-78.43" y="-100.44" width="1656.86" height="1200"/><rect class="cls-4" x="421.64" y="-8.1" width="656.73" height="1015.32"/><rect class="cls-5" x="1077.5" y="-8.1" width="433.99" height="1015.32"/><rect class="cls-5" x="-11.49" y="-8.1" width="433.99" height="1015.32"/><path class="cls-5" d="M750,181.56l-51.43,95.91c-5.83,10.43-16.29,9.46-26.75,3.64l-37.23-19.29,27.74,147.37c5.84,26.92-12.89,26.92-22.13,15.23l-65-72.75-10.54,36.94c-1.21,4.85-6.57,9.95-14.6,8.73l-82.16-17.26,21.59,78.47c4.61,17.45,8.22,24.68-4.67,29.29l-29.28,13.75L597,616.5a18.52,18.52,0,0,1,6.44,19.29L591.05,676.4c48.74-5.61,92.33-14.06,141.06-19.29,4.31-.46,11.5,6.64,11.47,11.63l-6.44,148.81H760.8L757.11,669c0-5,6.51-12.4,10.81-11.94,48.74,5.2,92.39,13.65,141.06,19.29L896.6,635.78A18.5,18.5,0,0,1,903,616.49l141.41-114.9-29.29-13.76c-12.88-4.61-9.28-11.84-4.66-29.29l21.59-78.47-82.17,17.26c-8,1.22-13.38-3.88-14.59-8.73l-10.55-36.94-65,72.75c-9.24,11.64-28,11.64-22.14-15.23L865.4,261.85l-37.22,19.29c-10.46,5.82-20.92,6.79-26.75-3.63"/></g></svg>