<svg width="48" height="48" viewBox="0 0 48 48" fill="none" xmlns="http://www.w3.org/2000/svg">
  <!-- Background circle -->
  <circle cx="24" cy="24" r="24" fill="#2496ED"/>
  
  <!-- Docker whale -->
  <path d="M8 28c0-6 4-10 10-10h12c6 0 10 4 10 10v4c0 2-1.5 3-3 3H11c-1.5 0-3-1-3-3v-4z" fill="white"/>
  
  <!-- Container blocks -->
  <rect x="10" y="20" width="4" height="6" fill="#2496ED"/>
  <rect x="15" y="20" width="4" height="6" fill="#2496ED"/>
  <rect x="20" y="20" width="4" height="6" fill="#2496ED"/>
  <rect x="25" y="20" width="4" height="6" fill="#2496ED"/>
  <rect x="30" y="20" width="4" height="6" fill="#2496ED"/>
  
  <!-- Container blocks - second row -->
  <rect x="15" y="14" width="4" height="5" fill="#2496ED"/>
  <rect x="20" y="14" width="4" height="5" fill="#2496ED"/>
  <rect x="25" y="14" width="4" height="5" fill="#2496ED"/>
  
  <!-- Container blocks - third row -->
  <rect x="20" y="8" width="4" height="5" fill="#2496ED"/>
  
  <!-- Whale spout -->
  <circle cx="36" cy="16" r="2" fill="white"/>
  <path d="M36 14c0-2 2-3 4-2" stroke="white" stroke-width="1.5" fill="none" stroke-linecap="round"/>
  
  <!-- Whale eye -->
  <circle cx="32" cy="24" r="1.5" fill="#2496ED"/>
  
  <!-- Water waves -->
  <path d="M6 32c2-1 4 1 6 0s4 1 6 0s4 1 6 0s4 1 6 0s4 1 6 0s4 1 6 0" stroke="white" stroke-width="1.5" fill="none" stroke-linecap="round"/>
</svg>
