<svg viewBox="0 0 24 24" fill="none" xmlns="http://www.w3.org/2000/svg">
  <circle cx="12" cy="12" r="10" fill="#005571"/>
  <path d="M6 8h12c1.1 0 2 .9 2 2v4c0 1.1-.9 2-2 2H6c-1.1 0-2-.9-2-2v-4c0-1.1.9-2 2-2z" fill="#FED10A"/>
  <path d="M8 10h8v4H8v-4z" fill="#F04E98"/>
  <circle cx="8" cy="12" r="1" fill="#fff"/>
  <circle cx="12" cy="12" r="1" fill="#fff"/>
  <circle cx="16" cy="12" r="1" fill="#fff"/>
  <path d="M4 6h16v2H4V6z" fill="#00BFB3"/>
  <path d="M4 16h16v2H4v-2z" fill="#00BFB3"/>
</svg>
