<svg xmlns="http://www.w3.org/2000/svg" viewBox="0 0 64 64" width="64" height="64">
  <defs>
    <linearGradient id="gitGradient" x1="0%" y1="0%" x2="100%" y2="100%">
      <stop offset="0%" style="stop-color:#F05032;stop-opacity:1" />
      <stop offset="100%" style="stop-color:#DE2910;stop-opacity:1" />
    </linearGradient>
  </defs>
  <rect width="64" height="64" rx="8" fill="url(#gitGradient)"/>
  
  <!-- Git branching visualization -->
  <g transform="translate(8, 12)">
    <!-- Main branch line -->
    <line x1="8" y1="8" x2="8" y2="40" stroke="#FFFFFF" stroke-width="3" stroke-linecap="round"/>
    
    <!-- Feature branch -->
    <path d="M8 16 Q16 12 24 16 L24 24 Q16 28 8 24" stroke="#FFFFFF" stroke-width="2.5" fill="none" stroke-linecap="round"/>
    
    <!-- Branch merge -->
    <path d="M24 24 Q32 28 40 24 L40 32 Q32 36 24 32" stroke="#FFFFFF" stroke-width="2.5" fill="none" stroke-linecap="round"/>
    
    <!-- Commit dots -->
    <circle cx="8" cy="8" r="3" fill="#FFFFFF"/>
    <circle cx="8" cy="16" r="2.5" fill="#FFFFFF"/>
    <circle cx="24" cy="16" r="2.5" fill="#FFFFFF"/>
    <circle cx="8" cy="24" r="2.5" fill="#FFFFFF"/>
    <circle cx="24" cy="24" r="2.5" fill="#FFFFFF"/>
    <circle cx="40" cy="24" r="2.5" fill="#FFFFFF"/>
    <circle cx="8" cy="32" r="2.5" fill="#FFFFFF"/>
    <circle cx="24" cy="32" r="2.5" fill="#FFFFFF"/>
    <circle cx="40" cy="32" r="2.5" fill="#FFFFFF"/>
    <circle cx="8" cy="40" r="3" fill="#FFFFFF"/>
  </g>
</svg>
