<svg id="Layer_1" data-name="Layer 1" xmlns="http://www.w3.org/2000/svg" xmlns:xlink="http://www.w3.org/1999/xlink" viewBox="0 0 1500 1000"><defs><style>.cls-1{fill:none;}.cls-2{clip-path:url(#clip-path);}.cls-3{fill:#fff;}.cls-4{fill:#003da5;}</style><clipPath id="clip-path"><rect class="cls-1" width="1500" height="1000"/></clipPath></defs><g class="cls-2"><path class="cls-3" d="M0,0H1500V1000H0Z"/><g id="h"><g id="q"><path class="cls-4" d="M625,0V375H0V0ZM360.78,253.44V233.28h-18c0-10.31,5-20.31,10.31-23.44,3.13-2.65,10.16-3.9,16.26-.78,8,4.53,8.43,17.66,4.37,23.6,38-7,34.22-43.75,21.25-57-10.47-10.78-21.88-12.34-30.62-9.06-20,7.19-33.44,31.1-34.07,66.72H319.84c0-32.34,5.63-42.66,20.32-83.44,7.5-19.22,3-43-10.16-64.84-4.84-7.81-10.78-14.84-17.5-22.5C305.78,70.16,299.84,77.19,295,85c-13.12,21.88-17.66,45.62-10.16,64.84,14.69,40.78,20.32,51.1,20.32,83.44H294.69c-.63-35.62-14.07-59.53-34.07-66.72-8.74-3.28-20.15-1.72-30.62,9.06-13,13.29-16.72,50,21.25,57-4.06-5.94-3.59-19.07,4.37-23.6,6.1-3.12,13.13-1.87,16.26.78,5.31,3.13,10.31,13.13,10.31,23.44h-18v20.16h37.34c-.47,10.47-6.09,18.59-16.56,23.12,1.25,4.38,7.66,13.28,16.41,12.66,1.71,9.37,3.28,14.69,11.09,23.28,7.81-8.59,9.38-13.91,11.09-23.28,8.75.62,15.16-8.28,16.41-12.66-10.47-4.53-16.09-12.65-16.56-23.12Z"/></g><g id="q-2" data-name="q"><path class="cls-4" d="M1500,0V375H875V0ZM1235.78,253.44V233.28h-18c0-10.31,5-20.31,10.31-23.44,3.13-2.65,10.16-3.9,16.26-.78,8,4.53,8.43,17.66,4.37,23.6,38-7,34.22-43.75,21.25-57-10.47-10.78-21.88-12.34-30.62-9.06-20,7.19-33.44,31.1-34.07,66.72h-10.47c0-32.34,5.63-42.66,20.32-83.44,7.5-19.22,3-43-10.16-64.84-4.84-7.81-10.78-14.84-17.5-22.5-6.72,7.66-12.66,14.69-17.5,22.5-13.12,21.88-17.66,45.62-10.16,64.84,14.69,40.78,20.32,51.1,20.32,83.44h-10.47c-.63-35.62-14.07-59.53-34.07-66.72-8.74-3.28-20.15-1.72-30.62,9.06-13,13.29-16.72,50,21.25,57-4.06-5.94-3.59-19.07,4.37-23.6,6.1-3.12,13.13-1.87,16.26.78,5.31,3.13,10.31,13.13,10.31,23.44h-18v20.16h37.34c-.47,10.47-6.09,18.59-16.56,23.12,1.25,4.38,7.66,13.28,16.41,12.66,1.71,9.37,3.28,14.69,11.09,23.28,7.81-8.59,9.38-13.91,11.09-23.28,8.75.62,15.16-8.28,16.41-12.66-10.47-4.53-16.09-12.65-16.56-23.12Z"/></g></g><g id="h-2" data-name="h"><g id="q-3" data-name="q"><path class="cls-4" d="M625,625v375H0V625ZM360.78,878.44V858.28h-18c0-10.31,5-20.31,10.31-23.44,3.13-2.65,10.16-3.9,16.26-.78,8,4.53,8.43,17.66,4.37,23.6,38-7,34.22-43.75,21.25-57-10.47-10.78-21.88-12.34-30.62-9.06-20,7.19-33.44,31.1-34.07,66.72H319.84c0-32.34,5.63-42.66,20.32-83.44,7.5-19.22,3-43-10.16-64.84-4.84-7.81-10.78-14.84-17.5-22.5-6.72,7.66-12.66,14.69-17.5,22.5-13.12,21.88-17.66,45.62-10.16,64.84,14.69,40.78,20.32,51.1,20.32,83.44H294.69c-.63-35.62-14.07-59.53-34.07-66.72-8.74-3.28-20.15-1.72-30.62,9.06-13,13.29-16.72,50,21.25,57-4.06-5.94-3.59-19.07,4.37-23.6,6.1-3.12,13.13-1.87,16.26.78,5.31,3.13,10.31,13.13,10.31,23.44h-18v20.16h37.34c-.47,10.47-6.09,18.59-16.56,23.12,1.25,4.38,7.66,13.28,16.41,12.66,1.71,9.37,3.28,14.69,11.09,23.28,7.81-8.59,9.38-13.91,11.09-23.28,8.75.62,15.16-8.28,16.41-12.66-10.47-4.53-16.09-12.65-16.56-23.12Z"/></g><g id="q-4" data-name="q"><path class="cls-4" d="M1500,625v375H875V625ZM1235.78,878.44V858.28h-18c0-10.31,5-20.31,10.31-23.44,3.13-2.65,10.16-3.9,16.26-.78,8,4.53,8.43,17.66,4.37,23.6,38-7,34.22-43.75,21.25-57-10.47-10.78-21.88-12.34-30.62-9.06-20,7.19-33.44,31.1-34.07,66.72h-10.47c0-32.34,5.63-42.66,20.32-83.44,7.5-19.22,3-43-10.16-64.84-4.84-7.81-10.78-14.84-17.5-22.5-6.72,7.66-12.66,14.69-17.5,22.5-13.12,21.88-17.66,45.62-10.16,64.84,14.69,40.78,20.32,51.1,20.32,83.44h-10.47c-.63-35.62-14.07-59.53-34.07-66.72-8.74-3.28-20.15-1.72-30.62,9.06-13,13.29-16.72,50,21.25,57-4.06-5.94-3.59-19.07,4.37-23.6,6.1-3.12,13.13-1.87,16.26.78,5.31,3.13,10.31,13.13,10.31,23.44h-18v20.16h37.34c-.47,10.47-6.09,18.59-16.56,23.12,1.25,4.38,7.66,13.28,16.41,12.66,1.71,9.37,3.28,14.69,11.09,23.28,7.81-8.59,9.38-13.91,11.09-23.28,8.75.62,15.16-8.28,16.41-12.66-10.47-4.53-16.09-12.65-16.56-23.12Z"/></g></g></g></svg>