<svg width="48" height="48" viewBox="0 0 48 48" fill="none" xmlns="http://www.w3.org/2000/svg">
  <!-- Background circle -->
  <circle cx="24" cy="24" r="24" fill="#7C3AED"/>
  
  <!-- Chart/analytics icon -->
  <path d="M12 32V16c0-1.1.9-2 2-2s2 .9 2 2v16h-4z" fill="white"/>
  <path d="M18 32V20c0-1.1.9-2 2-2s2 .9 2 2v12h-4z" fill="white"/>
  <path d="M24 32V12c0-1.1.9-2 2-2s2 .9 2 2v20h-4z" fill="white"/>
  <path d="M30 32V18c0-1.1.9-2 2-2s2 .9 2 2v14h-4z" fill="white"/>
  
  <!-- Trend arrow -->
  <path d="M36 12l-4 4 4 4V12z" fill="#A855F7"/>
  <path d="M32 16h8" stroke="#A855F7" stroke-width="2"/>
  
  <!-- Data points -->
  <circle cx="15" cy="22" r="1.5" fill="#7C3AED"/>
  <circle cx="21" cy="18" r="1.5" fill="#7C3AED"/>
  <circle cx="27" cy="14" r="1.5" fill="#7C3AED"/>
  <circle cx="33" cy="16" r="1.5" fill="#7C3AED"/>
</svg>
