<svg width="48" height="48" viewBox="0 0 48 48" fill="none" xmlns="http://www.w3.org/2000/svg">
  <!-- Background circle -->
  <circle cx="24" cy="24" r="24" fill="#059669"/>
  
  <!-- Book/graduation icon -->
  <path d="M14 12v20c0 2 1 3 3 3h8l2-3 2 3h8c2 0 3-1 3-3V12c0-2-1-3-3-3H17c-2 0-3 1-3 3z" fill="white"/>
  
  <!-- Graduation cap -->
  <path d="M24 8l-8 4v6l8 4 8-4v-6l-8-4z" fill="#34D399"/>
  <rect x="20" y="20" width="8" height="2" fill="#059669"/>
  
  <!-- Data bars -->
  <rect x="18" y="26" width="2" height="4" fill="#059669"/>
  <rect x="21" y="24" width="2" height="6" fill="#059669"/>
  <rect x="24" y="22" width="2" height="8" fill="#059669"/>
  <rect x="27" y="25" width="2" height="5" fill="#059669"/>
</svg>
