<svg width="48" height="48" viewBox="0 0 48 48" fill="none" xmlns="http://www.w3.org/2000/svg">
  <!-- Background circle -->
  <circle cx="24" cy="24" r="24" fill="#2563EB"/>
  
  <!-- Tech gear icon -->
  <path d="M24 14c-1.1 0-2 .9-2 2v1.5c-.7.2-1.4.5-2 .9L18.5 17c-.8-.8-2.1-.8-2.8 0s-.8 2.1 0 2.8l1.4 1.4c-.4.6-.7 1.3-.9 2H14c-1.1 0-2 .9-2 2s.9 2 2 2h1.5c.2.7.5 1.4.9 2L14.8 31c-.8.8-.8 2.1 0 2.8s2.1.8 2.8 0l1.4-1.4c.6.4 1.3.7 2 .9V35c0 1.1.9 2 2 2s2-.9 2-2v-1.5c.7-.2 1.4-.5 2-.9L31 34c.8.8 2.1.8 2.8 0s.8-2.1 0-2.8l-1.4-1.4c.4-.6.7-1.3.9-2H35c1.1 0 2-.9 2-2s-.9-2-2-2h-1.5c-.2-.7-.5-1.4-.9-2L34 19.8c.8-.8.8-2.1 0-2.8s-2.1-.8-2.8 0l-1.4 1.4c-.6-.4-1.3-.7-2-.9V16c0-1.1-.9-2-2-2z" fill="white"/>
  
  <!-- Inner gear -->
  <circle cx="24" cy="24" r="4" fill="#2563EB"/>
  
  <!-- Small binary code -->
  <text x="15" y="12" font-family="monospace" font-size="4" fill="white">10</text>
  <text x="30" y="38" font-family="monospace" font-size="4" fill="white">01</text>
</svg>
